<?xml version="1.0" standalone="no"?>
<!DOCTYPE svg PUBLIC "-//W3C//DTD SVG 20010904//EN"
 "http://www.w3.org/TR/2001/REC-SVG-20010904/DTD/svg10.dtd">
<svg version="1.0" xmlns="http://www.w3.org/2000/svg"
 width="500.000000pt" height="500.000000pt" viewBox="0 0 500.000000 500.000000"
 preserveAspectRatio="xMidYMid meet">
<metadata>
Created by potrace 1.14, written by Peter Selinger 2001-2017
</metadata>
<g transform="translate(0.000000,500.000000) scale(0.100000,-0.100000)"
fill="#000000" stroke="none">
<path d="M2255 3685 c-209 -33 -357 -89 -524 -200 -74 -50 -219 -177 -244
-215 -9 -14 -42 -59 -72 -100 -92 -125 -176 -312 -200 -445 -4 -22 -10 -49
-12 -60 -2 -11 -8 -58 -12 -105 -13 -153 -2 -272 41 -435 12 -43 27 -91 35
-105 7 -14 13 -29 13 -34 0 -14 66 -140 107 -203 79 -124 272 -322 303 -311 6
2 -15 23 -46 48 -192 153 -351 410 -408 660 -24 103 -30 157 -29 275 0 150 13
241 55 372 11 34 20 66 20 70 1 16 109 215 144 264 132 188 337 346 569 440
116 46 271 74 415 74 265 -1 474 -60 668 -188 89 -59 117 -59 33 0 -134 95
-344 175 -521 198 -91 12 -257 12 -335 0z"/>
<path d="M2159 3305 c-25 -8 -80 -37 -121 -64 -194 -126 -405 -406 -554 -733
-21 -47 -40 -85 -41 -84 -2 1 10 56 26 122 30 123 74 250 116 340 31 67 34 87
13 92 -17 3 -41 -42 -99 -185 -26 -66 -70 -212 -83 -273 -42 -207 -52 -270
-62 -377 -6 -57 -4 -63 13 -63 15 0 21 12 31 60 56 270 253 657 450 882 177
204 396 323 447 244 41 -62 10 -221 -85 -436 -21 -47 -78 -168 -127 -270 -126
-258 -183 -410 -183 -482 0 -46 29 -34 111 46 75 72 175 141 214 148 16 3 21
-6 31 -62 6 -36 14 -73 18 -82 13 -28 56 -50 103 -52 l45 -1 0 -76 c0 -88 28
-166 72 -194 83 -55 188 -13 334 133 106 106 165 177 326 388 58 77 121 157
140 179 36 41 43 59 27 69 -10 6 -88 -85 -206 -239 -222 -289 -356 -431 -456
-485 -115 -61 -166 -50 -194 42 -16 55 -19 115 -8 168 4 25 14 36 37 44 47 17
238 112 261 130 40 31 -8 14 -139 -49 -74 -36 -137 -65 -140 -65 -13 0 -5 43
24 133 53 166 143 329 260 472 91 111 141 149 235 180 61 21 75 32 75 57 0 17
-5 18 -37 13 -20 -3 -59 -18 -87 -34 -63 -36 -163 -67 -241 -75 -70 -7 -90 1
-80 35 11 34 152 168 218 208 140 83 291 116 231 50 -17 -19 -9 -24 20 -13 10
4 16 18 16 35 0 56 -64 62 -180 15 -150 -61 -340 -234 -340 -310 0 -45 38 -60
136 -52 l86 6 -52 -57 c-72 -81 -159 -212 -213 -318 -52 -105 -72 -158 -101
-275 l-21 -85 -42 -3 c-38 -3 -43 0 -57 27 -9 16 -16 50 -16 74 0 62 -29 97
-79 97 -38 0 -139 -55 -222 -121 l-38 -30 8 29 c15 52 85 217 134 317 80 161
157 326 179 380 92 228 98 379 16 421 -45 23 -94 26 -149 9z"/>
<path d="M3475 3211 c-8 -37 -19 -45 -42 -33 -21 12 -60 -4 -66 -28 -5 -19 15
-74 31 -84 12 -7 142 71 142 85 0 13 -12 11 -34 -6 -29 -22 -36 -9 -20 37 9
25 11 45 5 51 -5 5 -12 -3 -16 -22z m-18 -77 c3 -8 -5 -23 -18 -34 -24 -19
-24 -19 -41 1 -22 26 -22 33 -2 53 17 18 50 7 61 -20z"/>
<path d="M3588 3055 c-4 -4 -1 -20 7 -36 20 -38 19 -44 -10 -57 -23 -11 -26
-9 -39 23 -8 19 -19 35 -25 35 -6 0 -4 -15 5 -36 8 -20 14 -37 12 -39 -2 -1
-13 -8 -25 -14 -21 -11 -25 -9 -40 24 -14 30 -33 47 -33 30 0 -13 41 -85 48
-85 5 0 26 8 48 18 21 10 54 25 71 33 l33 14 -23 48 c-12 27 -25 45 -29 42z"/>
<path d="M3505 2841 c-13 -12 12 -18 60 -14 30 3 55 2 55 -1 0 -3 -22 -21 -50
-39 -27 -19 -47 -37 -43 -40 3 -4 22 -7 42 -8 20 0 44 -4 54 -8 15 -5 9 -11
-32 -31 -28 -13 -51 -28 -51 -33 0 -11 0 -10 98 33 40 18 71 35 68 37 -5 6
-50 13 -96 16 -22 1 -40 4 -40 7 0 3 23 21 51 40 28 18 53 38 55 42 5 8 -163
7 -171 -1z"/>
<path d="M3635 2613 c-84 -16 -110 -110 -43 -157 49 -35 119 -9 134 49 14 54
-40 117 -91 108z m58 -44 c38 -47 4 -113 -55 -107 -67 7 -89 91 -31 122 34 18
63 13 86 -15z"/>
<path d="M3579 2373 c-19 -5 -39 -44 -39 -77 0 -21 6 -24 53 -29 29 -4 67 -10
85 -13 19 -4 32 -2 32 4 0 5 -15 13 -33 16 -30 6 -33 9 -29 35 3 20 -2 35 -17
50 -21 21 -24 22 -52 14z m40 -27 c13 -16 11 -66 -4 -66 -51 1 -71 33 -39 64
19 20 28 20 43 2z"/>
<path d="M3510 2186 c0 -3 25 -25 56 -50 49 -40 53 -46 32 -48 -12 -1 -30 -2
-38 -4 -8 -1 -33 -2 -55 -3 l-40 -1 79 -45 c86 -49 132 -57 54 -9 -43 26 -62
46 -40 43 25 -4 102 2 101 9 0 4 -21 24 -46 45 l-46 38 62 -7 c38 -4 61 -3 61
3 0 6 -33 13 -72 17 -40 4 -81 9 -90 12 -10 3 -18 3 -18 0z"/>
<path d="M3421 1944 c-13 -25 -21 -47 -20 -48 11 -8 137 -76 142 -76 10 0 49
81 43 87 -3 3 -15 -11 -27 -31 -20 -35 -27 -36 -57 -13 -10 8 -8 17 7 43 11
18 16 36 11 39 -5 3 -17 -9 -26 -27 -22 -44 -20 -43 -48 -24 l-25 16 20 34
c11 19 16 37 11 40 -5 3 -19 -15 -31 -40z"/>
<path d="M3242 1704 c3 -5 21 -44 41 -86 38 -81 53 -99 42 -49 -8 38 29 82 60
70 27 -10 35 -11 35 0 0 4 -35 21 -77 36 -43 16 -84 30 -92 33 -8 3 -12 1 -9
-4z m81 -40 c22 -8 22 -17 -2 -38 -18 -16 -19 -16 -30 15 -14 40 -14 42 2 35
6 -3 20 -9 30 -12z"/>
<path d="M3094 1566 c-51 -43 -25 -136 41 -148 53 -11 118 47 100 89 -6 15 -9
14 -18 -12 -15 -45 -26 -55 -62 -55 -24 0 -39 7 -53 25 -35 45 -4 105 55 105
20 0 32 4 28 10 -11 18 -63 10 -91 -14z"/>
<path d="M2960 1482 c0 -8 17 -44 37 -80 44 -80 41 -77 50 -69 7 8 -38 99 -68
138 -10 13 -19 18 -19 11z"/>
<path d="M2877 1444 c-3 -3 3 -29 14 -56 11 -28 18 -52 16 -54 -1 -2 -29 14
-62 36 -33 22 -60 38 -62 37 -6 -6 56 -152 66 -155 15 -5 14 -1 -9 54 -11 26
-19 48 -17 50 1 2 29 -14 62 -36 33 -22 61 -38 62 -36 4 4 -28 91 -51 139 -7
15 -15 24 -19 21z"/>
<path d="M2610 1357 c-51 -26 -60 -96 -18 -141 13 -15 30 -20 60 -20 84 3 116
96 53 152 -29 25 -58 28 -95 9z m89 -33 c12 -15 21 -37 21 -50 0 -26 -43 -64
-72 -64 -25 0 -68 44 -68 70 0 29 44 70 74 70 15 0 33 -11 45 -26z"/>
<path d="M2340 1333 c0 -12 -7 -48 -15 -80 -17 -66 -19 -83 -6 -83 5 0 12 19
16 43 12 70 20 73 42 15 11 -29 24 -53 28 -53 5 0 17 27 28 60 l20 60 14 -62
c8 -35 19 -63 24 -63 6 0 8 8 5 18 -10 35 -30 137 -28 145 1 4 -2 7 -7 7 -5 0
-20 -30 -33 -67 l-25 -67 -17 50 c-9 27 -23 60 -31 74 -14 24 -14 24 -15 3z"/>
</g>
</svg>
